# xmcd CD database file
# Copyright (C) 1995-1998 Ti Kan
#
# Track frame offsets:
#	150
#	12197
#	23980
#	36985
#	49205
#	62177
#	78745
#	92727
#	106940
#	120062
#	136810
#	150017
#	166495
#	181965
#	198662
#	210232
#	225415
#	237192
#	249515
#	261782
#
# Disc length: 3735 seconds
#
# Revision: 1
# Processed by: cddbd v1.4b41PL1 Copyright (c) Steve Scherf et al.
# Submitted via: CDex 1.30
#
DISCID=f90e9514
DTITLE=Anne Murray - The Signature Series, Volume 8 (Where Do You Go When Yo
DTITLE=u Dream/The Hottest Night Of The Year)
DYEAR=1980
DGENRE=Country
TTITLE0=Blessed Are The Believers
TTITLE1=It Should Have Been Easy
TTITLE2=If A Heart Must Be Broken
TTITLE3=Bitter They Are, Harder They Fall
TTITLE4=It's All I Can Do
TTITLE5=We Don't Have To Hold Out
TTITLE6=Another Sleepless Night
TTITLE7=Where Do You Go When You Dream
TTITLE8=Call Me With The News
TTITLE9=Only Love
TTITLE10=The Hottest Night Of The Year
TTITLE11=Fallin' In Love (Fallin' Apart)
TTITLE12=Somebody's Always Sayin' Goodbye
TTITLE13=Easy Does It
TTITLE14=Hey! Baby!
TTITLE15=Ain't No Way To Rise Above (Fallin' In Love)
TTITLE16=Heart On The Line
TTITLE17=They Don't Call It Magic For Nothin'
TTITLE18=That'll Keep Me Dreamin'
TTITLE19=Song For The Mira
EXTD=\nYEAR: 1980/81  ID3G:   2
EXTT0=
EXTT1=
EXTT2=
EXTT3=
EXTT4=
EXTT5=
EXTT6=
EXTT7=
EXTT8=
EXTT9=
EXTT10=
EXTT11=
EXTT12=
EXTT13=
EXTT14=
EXTT15=
EXTT16=
EXTT17=
EXTT18=
EXTT19=
PLAYORDER=
